<svg class="img-fluid" id="outputsvg" xmlns="http://www.w3.org/2000/svg" width="375" height="150" viewBox="0 0 3730 1410">
<g id="l5wOKMGj8Me51veNFTqXRYh" fill="rgb(255,255,255)" style="transform: none;">
<g style="transform: none;">
<path id="pEvOTVFPS" d="M2350 1303 c-210 -15 -324 -26 -440 -43 -639 -96 -949 -123 -1449 -124 -195 -1 -341 -4 -325 -7 16 -4 58 -7 94 -8 36 -1 75 -4 87 -7 l23 -6 -1 -266 c0 -157 4 -269 10 -275 6 -6 27 0 58 18 83 48 84 65 3 65 l-60 0 0 230 0 230 123 0 c67 0 165 3 217 6 l96 7 13 -29 c19 -38 22 -56 12 -69 -16 -20 -21 -90 -8 -117 13 -30 27 -37 27 -14 0 7 9 16 20 19 14 3 20 14 20 31 0 15 6 29 14 32 15 6 23 33 31 94 5 39 21 60 46 60 24 0 24 -20 -1 -90 -11 -30 -19 -69 -20 -86 0 -18 -6 -34 -13 -37 -8 -3 -24 -27 -36 -53 l-23 -48 21 -41 c11 -23 30 -50 41 -60 13 -12 20 -31 20 -57 0 -30 4 -38 19 -38 26 0 42 22 31 40 -14 22 -12 30 8 30 24 0 48 27 58 64 5 23 3 32 -12 43 -18 13 -18 15 -1 44 10 19 15 40 11 55 -3 13 -1 45 5 71 6 27 13 74 16 107 2 32 5 59 7 61 2 1 98 12 213 24 116 12 302 35 415 52 313 45 422 58 577 65 127 6 145 5 162 -10 12 -11 21 -14 26 -7 7 12 45 15 45 4 0 -5 39 -9 87 -11 48 -2 90 -5 92 -8 11 -11 -24 -22 -51 -17 -20 4 -29 1 -34 -11 -5 -12 -10 -14 -19 -6 -20 16 -97 -9 -103 -33 -3 -14 -11 -17 -28 -13 -29 8 -32 -9 -4 -24 29 -16 13 -39 -33 -47 -34 -5 -38 -8 -24 -18 10 -7 17 -17 17 -24 0 -14 17 -15 25 -1 8 13 55 13 55 0 0 -6 10 -8 24 -4 31 7 43 -12 16 -26 -29 -15 -25 -32 8 -29 15 2 32 0 38 -4 7 -4 33 -8 58 -9 25 0 51 -7 56 -14 6 -6 18 -10 28 -8 11 3 21 -4 29 -21 10 -22 9 -25 -8 -25 -11 0 -22 7 -25 15 -4 8 -10 13 -14 10 -4 -3 -21 2 -36 10 -16 8 -45 15 -64 15 l-35 -1 28 -15 c37 -20 28 -30 -14 -15 -37 13 -79 15 -79 3 0 -4 27 -16 60 -25 33 -10 60 -22 60 -28 0 -5 -16 -2 -36 6 -41 17 -119 21 -109 5 3 -5 19 -10 35 -10 16 0 32 -4 35 -10 3 -5 19 -10 36 -10 31 0 36 -9 17 -28 -9 -9 -7 -12 10 -12 12 0 22 -5 22 -11 0 -8 -17 -10 -55 -6 -31 3 -55 2 -55 -4 0 -5 6 -9 13 -9 6 0 19 -5 27 -10 13 -9 13 -11 0 -20 -8 -5 -27 -10 -42 -10 -16 0 -28 -4 -28 -10 0 -5 7 -10 15 -10 7 0 18 -8 24 -17 8 -15 13 -16 30 -5 25 14 67 16 76 2 8 -13 -15 -47 -42 -59 -25 -11 -29 -27 -13 -51 9 -13 13 -11 29 10 16 20 22 22 34 11 9 -7 22 -11 31 -9 8 2 15 -1 16 -7 0 -5 -14 -13 -32 -16 -40 -7 -78 -26 -78 -40 0 -6 9 -8 19 -4 11 3 22 1 26 -4 3 -6 16 -11 28 -11 56 -1 73 -6 94 -30 26 -29 29 -50 8 -50 -8 0 -15 4 -15 9 0 16 -30 21 -55 9 -30 -14 -33 -28 -5 -28 11 0 20 -7 20 -15 0 -9 6 -12 15 -9 18 7 19 0 4 -28 -10 -19 -9 -20 14 -14 14 3 32 9 41 12 11 4 16 0 16 -14 0 -12 9 -28 21 -36 29 -20 14 -39 -28 -34 -30 4 -34 1 -31 -16 2 -15 12 -22 35 -24 22 -2 31 -8 31 -20 -2 -27 22 -92 34 -92 7 0 9 19 5 56 -5 52 -4 56 19 65 14 5 41 9 60 9 24 0 34 4 32 13 -6 16 -57 22 -71 8 -14 -14 -47 -14 -47 -1 0 5 6 15 13 22 8 6 12 22 9 34 -3 18 2 23 33 28 29 6 40 4 51 -11 12 -16 13 -16 14 -1 0 9 3 23 6 32 5 12 0 16 -19 16 -14 0 -32 3 -41 6 -17 7 -22 34 -6 34 6 0 10 4 10 10 0 25 36 50 72 50 37 0 38 1 38 38 0 27 -3 33 -10 22 -5 -8 -24 -15 -42 -16 -18 0 -50 -4 -70 -8 -33 -7 -38 -6 -38 10 0 24 79 59 111 49 19 -6 21 -4 16 14 -6 23 18 36 47 25 12 -5 15 -2 10 11 -4 9 -2 20 4 24 7 4 8 12 2 21 -7 11 -11 12 -25 0 -14 -11 -17 -10 -22 8 -6 24 -8 25 -38 12 -13 -5 -26 -3 -37 7 -19 17 -42 8 -34 -13 3 -8 0 -11 -10 -7 -7 3 -14 8 -13 12 1 13 56 48 112 71 31 13 57 26 57 30 0 11 -40 40 -53 37 -6 -1 -17 -8 -23 -16 -17 -22 -42 -7 -38 25 4 36 23 53 67 61 63 10 133 -35 77 -50 -23 -6 -27 -27 -5 -27 19 0 19 -10 0 -46 -8 -15 -13 -29 -12 -31 2 -1 19 2 38 7 34 10 88 2 89 -12 1 -35 0 -36 -39 -31 -47 6 -94 -3 -86 -17 3 -6 20 -10 36 -10 17 0 32 -6 35 -15 4 -8 12 -15 20 -15 15 0 19 -26 5 -34 -4 -3 -22 -1 -40 4 -19 5 -31 5 -31 -1 0 -5 4 -9 9 -9 5 0 7 -8 5 -17 -4 -15 2 -18 32 -18 23 0 39 -6 44 -15 4 -8 12 -25 19 -37 9 -18 8 -23 -2 -23 -7 0 -18 5 -24 11 -14 14 -53 2 -53 -17 0 -11 4 -12 19 -4 13 7 22 7 26 0 3 -5 15 -10 25 -10 16 0 19 -7 18 -45 0 -25 2 -48 5 -52 8 -7 27 41 27 67 0 11 11 22 30 29 41 14 38 31 -5 31 -36 0 -47 13 -20 24 8 3 15 12 15 21 0 10 10 15 30 15 20 0 30 5 30 15 0 8 15 22 33 31 l32 17 -29 10 c-21 7 -35 6 -49 -2 -27 -17 -32 -7 -12 26 15 26 23 29 73 31 31 1 58 5 61 8 3 3 7 22 8 44 2 31 -2 41 -22 54 -14 9 -25 23 -25 31 0 18 37 30 54 16 9 -8 22 -7 45 5 34 17 40 31 16 40 -8 4 -15 14 -15 24 0 25 -17 35 -35 20 -8 -6 -19 -9 -25 -5 -5 3 -10 1 -10 -4 0 -6 -7 -11 -16 -11 -13 0 -14 3 -4 15 7 8 10 22 6 30 -8 22 24 32 39 12 8 -12 15 -13 23 -5 6 6 21 11 33 12 28 1 38 26 11 26 -11 0 -23 7 -26 16 -3 8 -11 12 -17 9 -5 -4 -23 -1 -39 5 -17 7 -37 9 -47 4 -10 -4 -22 -8 -28 -9 -32 -4 -56 -18 -53 -33 3 -22 -10 -42 -27 -42 -12 0 -12 5 -2 28 26 58 68 81 159 85 55 2 75 16 48 32 -15 9 -12 28 4 22 17 -7 96 12 96 23 0 4 -11 11 -25 14 -21 5 -25 12 -23 39 l3 32 -125 7 c-378 21 -934 32 -1080 21z m1136 -59 c-3 -9 -6 -21 -7 -27 0 -7 -4 -3 -8 8 -9 22 -5 35 11 35 5 0 7 -7 4 -16z m54 1 c0 -15 -26 -32 -36 -23 -2 3 -2 13 2 22 8 20 34 21 34 1z m-405 -25 c3 -5 -8 -16 -25 -25 -26 -13 -34 -14 -47 -4 -13 12 -13 14 3 26 21 15 60 17 69 3z m-597 -85 c-13 -29 -23 -32 -32 -9 -10 25 -7 32 12 37 27 6 32 -2 20 -28z m62 24 c0 -17 -20 -49 -30 -49 -11 0 -14 43 -3 53 10 11 33 8 33 -4z m-1536 -27 c6 -10 -26 -130 -44 -162 -14 -25 -14 -25 -21 19 -7 52 6 132 24 143 16 10 35 10 41 0z m2322 -179 c-11 -11 -17 4 -9 23 7 18 8 18 11 1 2 -10 1 -21 -2 -24z m-66 -3 c0 -5 -7 -10 -15 -10 -8 0 -15 5 -15 10 0 6 7 10 15 10 8 0 15 -4 15 -10z m-2391 -116 c-10 -27 -12 -27 -19 -9 -9 24 7 62 21 48 6 -6 5 -21 -2 -39z m1774 -24 c3 -12 0 -20 -8 -20 -14 0 -27 25 -18 34 11 11 21 6 26 -14z m732 -11 c9 -28 -1 -35 -30 -19 -19 10 -22 16 -14 27 17 19 37 16 44 -8z m-637 -17 c2 -7 -3 -12 -12 -12 -9 0 -16 7 -16 16 0 17 22 14 28 -4z"></path></g></g></svg>