<?xml version="1.0" encoding="UTF-8" standalone="no"?>
<!DOCTYPE svg PUBLIC "-//W3C//DTD SVG 1.1//EN" "http://www.w3.org/Graphics/SVG/1.1/DTD/svg11.dtd">
<svg xmlns="http://www.w3.org/2000/svg" version="1.1" viewBox="0 0 512 512">
<path fill="rgb(0,0,0)" fill-opacity="1.000" d="M 250.56 0.00 Q 256.06 0.00 261.56 0.00 Q 300.34 3.27 325.42 30.75 Q 332.25 38.24 337.24 46.83 Q 347.16 63.93 349.25 83.00 Q 353.37 120.69 330.06 151.31 Q 316.44 169.21 294.76 179.35 A 1.12 1.08 -5.8 0 0 294.17 180.05 L 282.94 221.46 A 0.90 0.85 31.6 0 0 283.17 222.30 Q 286.14 225.29 289.23 228.14 Q 289.30 228.20 290.07 229.04 Q 291.41 230.50 294.00 230.50 Q 378.08 230.50 462.16 230.50 Q 471.43 230.50 475.68 231.96 Q 486.23 235.57 491.31 246.94 Q 505.84 279.46 510.94 291.56 Q 511.34 292.51 512.00 297.31 Q 512.00 298.94 512.00 300.56 Q 510.14 315.53 495.80 322.36 A 1.41 1.40 77.4 0 0 495.00 323.63 Q 495.00 401.25 495.00 478.09 Q 495.00 489.43 493.49 494.27 Q 488.78 509.33 470.94 512.00 Q 256.06 512.00 41.19 512.00 Q 23.22 509.43 18.46 494.14 Q 17.00 489.45 17.00 479.21 Q 17.00 401.24 17.00 323.41 A 1.25 1.25 12.0 0 0 16.26 322.27 Q 1.60 315.84 0.00 299.94 Q 0.00 298.56 0.00 297.19 Q 0.50 292.41 1.81 289.31 Q 6.55 278.16 16.35 256.57 Q 22.76 242.44 24.87 239.84 Q 29.38 234.26 36.47 231.88 Q 40.59 230.50 48.71 230.50 Q 133.85 230.50 218.95 230.50 A 3.39 3.17 21.7 0 0 221.23 229.61 L 228.62 222.51 A 1.67 1.62 60.6 0 0 229.05 220.89 L 217.98 180.24 A 1.74 1.73 -85.3 0 0 217.02 179.10 Q 198.51 170.59 185.32 155.20 Q 162.89 129.01 162.23 95.25 Q 162.04 85.31 164.05 75.37 Q 171.59 38.16 203.06 16.31 Q 223.79 1.92 250.56 0.00 Z M 332.73 93.86 A 76.73 76.73 0 0 0 256.00 17.13 A 76.73 76.73 0 0 0 179.27 93.86 A 76.73 76.73 0 0 0 256.00 170.59 A 76.73 76.73 0 0 0 332.73 93.86 Z M 253.07 187.52 Q 245.91 187.24 238.04 186.07 A 0.63 0.62 86.2 0 0 237.36 186.86 L 243.17 208.24 A 0.64 0.63 67.0 0 0 244.11 208.63 Q 255.78 201.57 267.89 208.62 A 0.48 0.47 22.9 0 0 268.59 208.34 L 274.55 186.36 A 0.36 0.36 -87.4 0 0 274.14 185.91 Q 263.27 187.92 253.07 187.52 Z M 273.36 258.14 Q 316.81 298.69 359.95 338.97 A 0.88 0.88 44.0 0 0 361.17 338.95 L 371.16 328.97 A 0.69 0.69 -46.4 0 0 371.14 327.98 L 258.19 222.56 Q 256.00 220.52 253.81 222.56 L 140.88 327.98 A 0.69 0.69 -43.9 0 0 140.86 328.98 L 150.88 339.00 A 0.84 0.83 -44.0 0 0 152.04 339.02 Q 201.07 293.32 249.06 248.31 Q 253.09 244.54 257.52 245.37 Q 260.18 245.87 264.09 249.51 Q 268.73 253.82 273.36 258.14 Z M 321.08 257.93 Q 346.27 281.42 371.49 304.90 Q 371.55 304.95 372.31 305.79 Q 373.62 307.25 376.25 307.25 Q 429.36 307.25 482.46 307.25 Q 487.53 307.25 489.90 306.23 Q 494.41 304.27 494.66 299.58 Q 494.81 296.57 492.00 290.28 Q 483.71 271.78 475.47 253.26 Q 473.46 248.76 469.31 247.74 Q 468.32 247.50 461.66 247.50 Q 387.57 247.50 313.13 247.50 Q 312.57 247.50 312.03 247.34 Q 310.87 246.98 310.59 247.51 A 0.83 0.54 38.9 0 0 310.86 248.34 Q 315.95 253.15 321.08 257.93 Z M 37.80 250.83 Q 37.40 251.33 37.14 251.91 Q 27.88 272.33 18.94 292.88 Q 17.05 297.23 17.26 299.52 Q 17.60 303.40 21.44 305.73 Q 23.94 307.25 28.50 307.25 Q 82.37 307.25 136.82 307.25 A 3.13 3.09 -66.2 0 0 138.94 306.41 L 201.16 248.33 Q 202.05 247.50 200.84 247.50 Q 123.59 247.50 46.67 247.50 Q 43.24 247.50 41.87 247.95 Q 39.48 248.73 37.80 250.83 Z M 290.17 394.20 Q 301.56 398.04 305.69 409.92 Q 306.99 413.67 307.05 419.76 Q 307.42 456.45 307.24 494.08 A 0.92 0.91 90.0 0 0 308.15 495.00 L 348.79 494.94 A 0.97 0.96 90.0 0 0 349.75 493.97 L 349.75 353.20 A 1.09 1.08 -68.5 0 0 349.41 352.41 L 256.47 265.71 A 0.73 0.73 44.8 0 0 255.47 265.71 L 162.63 352.47 A 1.22 1.21 -21.9 0 0 162.25 353.35 L 162.31 494.44 A 0.50 0.50 -45.0 0 0 162.81 494.94 L 203.88 494.94 A 0.89 0.88 90.0 0 0 204.76 494.05 Q 204.58 456.19 204.94 419.90 Q 205.01 413.56 206.34 409.79 Q 210.40 398.24 221.90 394.14 Q 225.75 392.76 232.31 392.66 Q 253.16 392.36 274.02 392.49 Q 285.33 392.56 290.17 394.20 Z M 38.19 493.56 Q 41.19 495.27 45.12 495.11 Q 47.80 495.00 47.88 495.00 Q 96.28 495.05 144.30 494.94 A 0.71 0.70 90.0 0 0 145.00 494.23 Q 145.00 425.55 145.00 357.85 Q 145.00 357.80 145.09 356.65 Q 145.22 355.13 143.93 354.79 Q 142.30 354.35 141.07 353.20 Q 134.61 347.15 128.44 340.81 Q 122.24 334.43 123.60 324.76 A 0.44 0.44 4.4 0 0 123.16 324.25 L 34.81 324.31 A 0.50 0.50 45.0 0 0 34.31 324.81 Q 34.21 404.79 34.25 484.77 Q 34.25 488.15 34.83 489.66 Q 35.81 492.21 38.19 493.56 Z M 388.69 329.94 Q 388.51 332.46 387.42 334.97 Q 386.60 336.88 384.66 339.26 Q 377.13 348.51 367.41 355.46 A 0.99 0.97 72.7 0 0 367.00 356.26 L 367.00 494.31 A 0.69 0.69 -45.0 0 0 367.69 495.00 Q 415.74 495.00 463.25 495.00 Q 463.31 495.00 466.25 495.07 Q 469.51 495.15 471.75 494.50 Q 474.94 493.58 476.57 490.84 Q 477.69 488.98 477.69 485.29 Q 477.75 405.00 477.81 324.98 A 0.73 0.72 90.0 0 0 477.09 324.25 L 388.93 324.43 A 0.46 0.44 87.1 0 0 388.49 324.94 Q 388.82 328.10 388.69 329.94 Z M 223.53 413.50 Q 221.75 416.12 221.75 419.75 Q 221.75 456.75 221.75 493.91 A 1.09 1.09 0.2 0 0 222.84 495.00 L 246.58 495.00 A 0.92 0.92 90.0 0 0 247.50 494.08 L 247.50 410.35 A 0.85 0.85 -89.8 0 0 246.65 409.50 Q 238.63 409.50 231.25 409.48 Q 226.25 409.47 223.53 413.50 Z M 264.92 494.81 L 289.21 494.98 A 0.98 0.97 -89.7 0 0 290.19 494.00 Q 290.30 456.72 290.25 419.00 Q 290.24 413.91 286.73 411.39 Q 284.45 409.76 279.39 409.59 Q 272.74 409.37 265.49 409.52 A 1.01 1.01 -0.6 0 0 264.50 410.53 L 264.56 494.45 A 0.36 0.36 0.0 0 0 264.92 494.81 Z"/>
<circle fill="rgb(0,0,0)" fill-opacity="1.000" cx="237.89" cy="90.60" r="8.43"/>
<circle fill="rgb(0,0,0)" fill-opacity="1.000" cx="205.13" cy="93.82" r="8.52"/>
<circle fill="rgb(0,0,0)" fill-opacity="1.000" cx="261.85" cy="112.37" r="8.44"/>
<circle fill="rgb(0,0,0)" fill-opacity="1.000" cx="220.00" cy="129.82" r="8.51"/>
<circle fill="rgb(0,0,0)" fill-opacity="1.000" cx="255.95" cy="144.72" r="8.52"/>
<path fill="rgb(0,0,0)" fill-opacity="1.000" d="M 290.17 358.16 A 17.30 17.30 0 0 1 272.87 375.46 L 239.11 375.46 A 17.30 17.30 0 0 1 221.81 358.16 L 221.81 333.06 A 17.30 17.30 0 0 1 239.11 315.76 L 272.87 315.76 A 17.30 17.30 0 0 1 290.17 333.06 L 290.17 358.16 Z M 273.00 333.35 A 0.60 0.60 0 0 0 272.40 332.75 L 239.60 332.75 A 0.60 0.60 0 0 0 239.00 333.35 L 239.00 357.91 A 0.60 0.60 0 0 0 239.60 358.51 L 272.40 358.51 A 0.60 0.60 0 0 0 273.00 357.91 L 273.00 333.35 Z"/>
<rect fill="rgb(0,0,0)" fill-opacity="0.000" x="-17.00" y="-12.88" width="34.00" height="25.76" rx="0.60" transform="translate(256.00,345.63) rotate(0.0)"/>
<path fill="rgb(0,0,0)" fill-opacity="1.000" d="M 119.4579 383.8221 A 17.25 17.25 0 0 1 102.1778 401.0420 L 76.9379 400.9979 A 17.25 17.25 0 0 1 59.7180 383.7178 L 59.7621 358.4779 A 17.25 17.25 0 0 1 77.0422 341.2580 L 102.2821 341.3021 A 17.25 17.25 0 0 1 119.5020 358.5822 L 119.4579 383.8221 Z M 102.5111 359.1525 A 0.65 0.65 0 0 0 101.8623 358.5013 L 77.4223 358.4587 A 0.65 0.65 0 0 0 76.7712 359.1075 L 76.7289 383.3275 A 0.65 0.65 0 0 0 77.3777 383.9786 L 101.8177 384.0213 A 0.65 0.65 0 0 0 102.4688 383.3724 L 102.5111 359.1525 Z"/>
<path fill="rgb(0,0,0)" fill-opacity="1.000" d="M 452.2720 383.7178 A 17.25 17.25 0 0 1 435.0521 400.9979 L 409.8122 401.0420 A 17.25 17.25 0 0 1 392.5321 383.8221 L 392.4880 358.5822 A 17.25 17.25 0 0 1 409.7079 341.3021 L 434.9478 341.2580 A 17.25 17.25 0 0 1 452.2279 358.4779 L 452.2720 383.7178 Z M 435.24 358.95 A 0.49 0.49 0 0 0 434.75 358.46 L 409.99 358.46 A 0.49 0.49 0 0 0 409.50 358.95 L 409.50 383.51 A 0.49 0.49 0 0 0 409.99 384.00 L 434.75 384.00 A 0.49 0.49 0 0 0 435.24 383.51 L 435.24 358.95 Z"/>
<rect fill="rgb(0,0,0)" fill-opacity="0.000" x="-12.87" y="-12.76" width="25.74" height="25.52" rx="0.65" transform="translate(89.62,371.24) rotate(0.1)"/>
<rect fill="rgb(0,0,0)" fill-opacity="0.000" x="-12.87" y="-12.77" width="25.74" height="25.54" rx="0.49" transform="translate(422.37,371.23) rotate(0.0)"/>
<path fill="rgb(0,0,0)" fill-opacity="1.000" d="M 119.48 460.72 A 17.04 17.04 0 0 1 102.44 477.76 L 76.78 477.76 A 17.04 17.04 0 0 1 59.74 460.72 L 59.74 435.28 A 17.04 17.04 0 0 1 76.78 418.24 L 102.44 418.24 A 17.04 17.04 0 0 1 119.48 435.28 L 119.48 460.72 Z M 102.5210 435.9625 A 0.69 0.69 0 0 0 101.8322 435.2713 L 77.4523 435.2287 A 0.69 0.69 0 0 0 76.7611 435.9175 L 76.7190 460.0375 A 0.69 0.69 0 0 0 77.4078 460.7287 L 101.7877 460.7713 A 0.69 0.69 0 0 0 102.4789 460.0825 L 102.5210 435.9625 Z"/>
<path fill="rgb(0,0,0)" fill-opacity="1.000" d="M 452.25 460.73 A 17.03 17.03 0 0 1 435.22 477.76 L 409.54 477.76 A 17.03 17.03 0 0 1 392.51 460.73 L 392.51 435.27 A 17.03 17.03 0 0 1 409.54 418.24 L 435.22 418.24 A 17.03 17.03 0 0 1 452.25 435.27 L 452.25 460.73 Z M 435.2712 435.8625 A 0.59 0.59 0 0 0 434.6822 435.2715 L 410.1223 435.2286 A 0.59 0.59 0 0 0 409.5313 435.8176 L 409.4888 460.1375 A 0.59 0.59 0 0 0 410.0778 460.7285 L 434.6377 460.7714 A 0.59 0.59 0 0 0 435.2288 460.1824 L 435.2712 435.8625 Z"/>
<rect fill="rgb(0,0,0)" fill-opacity="0.000" x="-12.88" y="-12.75" width="25.76" height="25.50" rx="0.69" transform="translate(89.62,448.00) rotate(0.1)"/>
<rect fill="rgb(0,0,0)" fill-opacity="0.000" x="-12.87" y="-12.75" width="25.74" height="25.50" rx="0.59" transform="translate(422.38,448.00) rotate(0.1)"/>
</svg>