<?xml version="1.0" standalone="no"?>
<!DOCTYPE svg PUBLIC "-//W3C//DTD SVG 20010904//EN"
 "http://www.w3.org/TR/2001/REC-SVG-20010904/DTD/svg10.dtd">
<svg version="1.0" xmlns="http://www.w3.org/2000/svg"
 width="300.000000pt" height="300.000000pt" viewBox="0 0 300.000000 300.000000"
 preserveAspectRatio="xMidYMid meet">
<metadata>
Created by potrace 1.14, written by Peter Selinger 2001-2017
</metadata>
<g transform="translate(0.000000,300.000000) scale(0.100000,-0.100000)"
fill="#000000" stroke="none">
<path d="M480 2814 c-144 -39 -258 -155 -295 -300 -14 -54 -15 -180 -13 -1040
3 -975 3 -979 24 -1031 47 -114 148 -212 257 -250 49 -17 115 -18 1047 -18
932 0 998 1 1047 18 113 39 221 147 260 260 17 49 18 115 18 1047 0 932 -1
998 -18 1047 -38 109 -136 210 -250 257 -52 21 -55 21 -1037 23 -844 2 -993 0
-1040 -13z m1525 -514 c93 -21 175 -52 184 -68 7 -14 41 -342 41 -398 0 -29
-28 -12 -46 28 -61 137 -191 279 -306 335 -217 105 -466 70 -611 -87 -109
-117 -165 -277 -174 -498 -15 -341 93 -638 290 -800 103 -84 209 -118 345
-109 70 4 96 11 159 42 120 59 238 193 312 353 22 47 43 64 54 45 4 -8 -26
-302 -38 -369 -5 -26 -14 -35 -53 -52 -158 -67 -418 -97 -627 -71 -465 57
-776 394 -775 841 1 213 70 384 220 538 143 148 321 236 570 284 45 8 404 -3
455 -14z"/>
</g>
</svg>
