<?xml version="1.0" standalone="no"?>
<!DOCTYPE svg PUBLIC "-//W3C//DTD SVG 20010904//EN"
 "http://www.w3.org/TR/2001/REC-SVG-20010904/DTD/svg10.dtd">
<svg version="1.0" xmlns="http://www.w3.org/2000/svg"
 width="700.000000pt" height="700.000000pt" viewBox="0 0 700.000000 700.000000"
 preserveAspectRatio="xMidYMid meet">
<metadata>
Created by potrace 1.14, written by Peter Selinger 2001-2017
</metadata>
<g transform="translate(0.000000,700.000000) scale(0.100000,-0.100000)"
fill="#000000" stroke="none">
<path d="M2375 6995 c-5 -2 -44 -10 -85 -19 -102 -23 -153 -45 -146 -65 3 -9
15 -43 27 -76 22 -60 22 -61 23 -975 l2 -915 24 0 c14 0 41 5 60 11 66 23 246
32 350 19 169 -22 389 -101 715 -255 589 -279 866 -341 1160 -263 149 40 362
172 406 253 11 21 14 179 14 885 1 473 -3 878 -7 900 -5 22 -22 53 -38 69 -40
40 -79 37 -195 -18 -160 -76 -259 -100 -405 -100 -141 1 -266 22 -415 70 -83
27 -108 37 -213 85 -35 16 -69 29 -75 29 -7 0 -17 4 -22 9 -6 5 -43 23 -82 40
-40 18 -121 54 -180 82 -212 100 -439 187 -533 204 -145 28 -187 32 -275 33
-55 0 -104 -2 -110 -3z"/>
<path d="M1790 6828 c-14 -6 -36 -24 -48 -41 l-22 -31 0 -906 c-1 -498 -2
-1670 -2 -2605 -1 -1341 1 -1708 11 -1737 34 -102 169 -110 212 -13 17 39 18
151 16 2658 l-2 2617 -30 29 c-33 33 -92 46 -135 29z"/>
<path d="M3587 2843 c-1 -1 -67 -4 -147 -8 -80 -3 -170 -8 -200 -10 -173 -14
-270 -23 -330 -30 -103 -12 -147 -18 -170 -20 -104 -12 -531 -85 -540 -92 -3
-3 -5 -197 -5 -432 l-1 -427 56 -38 c63 -43 127 -120 156 -186 29 -67 27 -189
-5 -253 -58 -118 -223 -230 -386 -260 -101 -19 -265 -20 -347 -1 -130 30 -267
101 -329 172 -70 80 -105 215 -80 309 17 64 86 158 148 203 30 21 60 41 66 43
11 3 18 650 7 668 -12 18 -383 -128 -605 -239 -565 -283 -834 -588 -812 -923
6 -100 8 -109 40 -188 98 -244 326 -425 739 -590 103 -42 241 -87 318 -106 8
-2 49 -13 90 -24 41 -11 86 -22 100 -24 14 -3 57 -13 95 -22 185 -43 650 -128
825 -150 30 -4 64 -9 75 -11 11 -3 43 -7 70 -10 53 -6 94 -10 160 -18 43 -6
144 -15 215 -21 25 -2 79 -7 120 -10 387 -33 1081 -38 1420 -10 25 2 83 6 130
10 141 10 258 20 340 30 19 2 60 7 90 10 30 4 66 8 80 10 14 2 54 7 90 10 36
4 72 9 81 10 9 2 40 6 70 10 58 7 478 71 519 80 50 10 76 14 115 20 22 3 67
12 100 19 33 8 76 17 95 20 174 29 462 109 585 164 247 109 325 225 263 388
-35 92 -195 242 -333 311 -22 11 -101 44 -175 73 -74 28 -144 55 -155 60 -11
4 -51 20 -90 35 -244 97 -409 176 -514 247 -184 125 -256 218 -264 338 -10
143 57 210 285 290 134 46 169 60 200 76 84 43 126 118 113 201 -6 40 -15 56
-54 93 -71 69 -185 100 -461 125 -36 3 -81 8 -100 10 -32 4 -96 9 -235 20 -27
3 -75 7 -105 9 -30 3 -100 8 -155 11 -55 3 -129 8 -165 10 -185 13 -1083 28
-1093 18z m1311 -1193 c208 -39 369 -229 377 -443 3 -94 -6 -142 -44 -222
-141 -301 -554 -362 -779 -115 -41 46 -95 151 -108 213 -13 63 -12 155 1 217
14 64 72 165 127 220 111 112 269 160 426 130z"/>
</g>
</svg>
