<?xml version="1.0" encoding="UTF-8" standalone="no"?>
<!DOCTYPE svg PUBLIC "-//W3C//DTD SVG 1.1//EN" "http://www.w3.org/Graphics/SVG/1.1/DTD/svg11.dtd">
<svg xmlns="http://www.w3.org/2000/svg" version="1.1" viewBox="0 0 512 512">
<path fill="rgb(0,0,0)" fill-opacity="1.000" d="M 253.56 0.00 Q 256.06 0.00 258.56 0.00 Q 307.00 1.34 345.81 27.19 Q 384.65 53.05 403.86 96.07 Q 407.93 105.18 410.87 114.80 Q 426.27 165.22 409.25 214.75 Q 392.12 264.60 348.07 295.42 Q 345.84 296.98 340.89 299.95 Q 337.24 302.15 333.72 304.54 A 1.03 1.00 76.1 0 0 333.27 305.31 Q 332.20 316.90 325.94 327.19 Q 314.83 345.45 296.44 355.45 Q 294.30 356.61 293.41 357.49 Q 291.98 358.89 291.31 360.56 Q 287.28 370.60 285.60 382.48 Q 283.48 397.43 282.61 412.51 Q 280.74 444.90 280.92 477.34 Q 280.99 490.13 279.63 494.53 Q 276.13 505.90 263.87 510.45 Q 262.35 511.01 260.19 511.36 Q 258.31 511.66 256.44 512.00 Q 256.06 512.00 255.69 512.00 Q 237.08 510.35 231.56 492.69 Q 230.68 489.86 230.79 479.00 Q 231.03 454.11 230.03 429.25 Q 229.12 406.65 225.95 384.26 Q 225.35 380.03 222.50 368.00 Q 221.24 362.67 218.74 358.88 Q 217.53 357.04 214.90 355.60 Q 195.76 345.09 184.66 326.07 Q 179.49 317.20 177.95 304.55 A 1.18 1.16 -79.1 0 0 177.36 303.66 Q 137.77 281.37 115.54 242.74 Q 110.63 234.20 106.71 224.82 Q 83.69 169.80 101.75 112.50 Q 112.82 77.36 138.95 50.08 Q 145.85 42.88 153.66 36.56 Q 196.71 1.72 253.56 0.00 Z M 400.88 162.09 A 144.90 144.90 0 0 0 255.98 17.19 A 144.90 144.90 0 0 0 111.08 162.09 A 144.90 144.90 0 0 0 255.98 306.99 A 144.90 144.90 0 0 0 400.88 162.09 Z M 210.37 331.39 Q 216.15 336.82 224.44 341.31 Q 230.79 344.75 234.22 350.86 Q 236.07 354.15 238.79 363.33 Q 242.20 374.83 243.59 386.75 Q 244.24 392.26 245.16 401.22 Q 245.82 407.54 246.25 415.75 Q 247.56 440.54 247.60 449.25 Q 247.67 467.50 248.00 485.75 Q 248.08 490.04 250.49 492.43 Q 252.77 494.70 256.55 494.55 Q 261.10 494.38 262.99 490.39 Q 264.01 488.22 263.95 483.46 Q 263.56 449.21 265.32 415.00 Q 265.74 406.74 268.00 386.75 Q 270.16 367.67 276.31 352.56 Q 277.69 349.19 280.57 346.00 Q 282.66 343.70 286.65 341.42 Q 291.78 338.50 293.25 337.50 Q 306.02 328.82 313.73 313.75 Q 313.97 313.30 313.48 313.47 Q 255.25 334.47 198.20 313.39 Q 197.30 313.05 197.70 313.93 Q 202.20 323.71 210.37 331.39 Z"/>
<circle fill="rgb(0,0,0)" fill-opacity="1.000" cx="136.56" cy="179.15" r="8.34"/>
<circle fill="rgb(0,0,0)" fill-opacity="1.000" cx="375.42" cy="179.15" r="8.35"/>
<circle fill="rgb(0,0,0)" fill-opacity="1.000" cx="341.32" cy="196.23" r="8.34"/>
<circle fill="rgb(0,0,0)" fill-opacity="1.000" cx="170.68" cy="196.25" r="8.33"/>
<circle fill="rgb(0,0,0)" fill-opacity="1.000" cx="204.80" cy="204.79" r="8.34"/>
<circle fill="rgb(0,0,0)" fill-opacity="1.000" cx="307.18" cy="204.77" r="8.35"/>
<circle fill="rgb(0,0,0)" fill-opacity="1.000" cx="238.92" cy="213.33" r="8.37"/>
<circle fill="rgb(0,0,0)" fill-opacity="1.000" cx="273.06" cy="213.33" r="8.37"/>
<circle fill="rgb(0,0,0)" fill-opacity="1.000" cx="153.60" cy="221.84" r="8.37"/>
<circle fill="rgb(0,0,0)" fill-opacity="1.000" cx="358.37" cy="221.86" r="8.37"/>
<circle fill="rgb(0,0,0)" fill-opacity="1.000" cx="187.72" cy="238.89" r="8.39"/>
<circle fill="rgb(0,0,0)" fill-opacity="1.000" cx="324.23" cy="238.89" r="8.40"/>
<circle fill="rgb(0,0,0)" fill-opacity="1.000" cx="221.87" cy="247.43" r="8.35"/>
<circle fill="rgb(0,0,0)" fill-opacity="1.000" cx="255.95" cy="247.44" r="8.43"/>
<circle fill="rgb(0,0,0)" fill-opacity="1.000" cx="290.11" cy="247.41" r="8.39"/>
<circle fill="rgb(0,0,0)" fill-opacity="1.000" cx="204.81" cy="273.02" r="8.40"/>
<circle fill="rgb(0,0,0)" fill-opacity="1.000" cx="307.19" cy="273.02" r="8.40"/>
<circle fill="rgb(0,0,0)" fill-opacity="1.000" cx="238.93" cy="281.56" r="8.39"/>
<circle fill="rgb(0,0,0)" fill-opacity="1.000" cx="273.04" cy="281.55" r="8.36"/>
</svg>